<svg width="200" height="200" viewBox="0 0 200 200" fill="none" xmlns="http://www.w3.org/2000/svg">
<rect width="200" height="200" fill="white"/>
<path d="M120.503 181.268C96.2334 184.875 72.6107 171.639 62.8685 149.131C51.5029 122.86 49.5962 97.6168 49.5962 97.6168C49.3968 94.6765 49.4333 91.7249 49.7052 88.7904C52.4987 58.8344 79.0482 36.8157 109.004 39.6068C135.171 42.0466 155.259 62.5923 158.084 87.7025C158.351 90.0784 158.461 92.4693 158.413 94.8596C159.404 104.367 163.123 121.995 176.696 139.525C178.295 141.795 180.512 144.113 182.753 146.204C186.574 149.747 184.597 156.123 179.441 156.865C164.385 159.045 153.187 155.506 153.187 155.506C153.187 155.506 155.125 158.52 158.118 162.261C161.369 166.307 158.813 172.342 153.645 172.817C144.586 173.65 131.597 173.103 118.499 166.564C120.09 168.917 121.847 171.154 123.757 173.258C124.339 173.896 124.738 174.68 124.91 175.526C125.082 176.373 125.021 177.25 124.734 178.065C124.447 178.88 123.944 179.602 123.279 180.153C122.614 180.705 121.812 181.066 120.958 181.197L120.503 181.268Z" fill="white"/>
<path d="M62.8687 149.131C72.6109 171.649 96.2336 184.885 120.503 181.277L120.968 181.207C121.822 181.075 122.624 180.715 123.289 180.163C123.954 179.611 124.457 178.89 124.744 178.075C125.031 177.26 125.092 176.383 124.92 175.536C124.748 174.69 124.349 173.905 123.767 173.268C121.857 171.165 120.1 168.929 118.509 166.576C131.592 173.117 144.596 173.662 153.655 172.829C158.823 172.344 161.379 166.319 158.127 162.273C155.123 158.532 153.197 155.518 153.197 155.518C153.197 155.518 164.395 159.06 179.451 156.877C184.607 156.131 186.584 149.754 182.763 146.217C180.512 144.126 171.86 132.348 170.263 130.076C170.263 130.059 127.51 187.187 62.8687 149.131Z" fill="#D7DEF1"/>
<path d="M115.513 91.6115C120.885 91.33 124.958 85.7277 124.61 79.0985C124.263 72.4693 119.627 67.3235 114.255 67.6051C108.883 67.8866 104.81 73.4888 105.157 80.118C105.505 86.7472 110.141 91.893 115.513 91.6115Z" fill="#00236F"/>
<path d="M114.793 77.9044C117.035 77.7869 118.774 76.1891 118.677 74.3357C118.58 72.4823 116.683 71.0751 114.441 71.1926C112.199 71.3101 110.46 72.9079 110.557 74.7613C110.654 76.6147 112.551 78.0219 114.793 77.9044Z" fill="#1157AA"/>
<path d="M82.6924 93.3317C88.0641 93.0502 92.1372 87.4479 91.7898 80.8187C91.4423 74.1895 86.806 69.0437 81.4342 69.3252C76.0625 69.6067 71.9894 75.209 72.3368 81.8382C72.6842 88.4674 77.3206 93.6132 82.6924 93.3317Z" fill="#00236F"/>
<path d="M81.9747 79.622C84.2169 79.5044 85.9559 77.9067 85.8588 76.0533C85.7616 74.1999 83.8652 72.7927 81.6229 72.9102C79.3807 73.0277 77.6417 74.6255 77.7389 76.4789C77.836 78.3323 79.7324 79.7395 81.9747 79.622Z" fill="#1157AA"/>
<path d="M99.1869 95.6107C98.8741 95.6114 98.5696 95.5102 98.3195 95.3224L94.0844 92.1727C93.7747 91.943 93.5689 91.5996 93.5123 91.2182C93.4557 90.8367 93.553 90.4484 93.7828 90.1387C94.0125 89.829 94.3558 89.6232 94.7373 89.5666C95.1187 89.5101 95.507 89.6073 95.8167 89.8371L99.0876 92.2599L102.087 89.5294C102.228 89.4002 102.392 89.3 102.572 89.2344C102.751 89.1689 102.942 89.1394 103.132 89.1475C103.323 89.1556 103.51 89.2012 103.684 89.2816C103.857 89.3621 104.012 89.4759 104.142 89.6166C104.271 89.7572 104.371 89.9219 104.437 90.1013C104.502 90.2806 104.532 90.4711 104.523 90.6619C104.515 90.8527 104.47 91.04 104.389 91.2132C104.309 91.3864 104.195 91.542 104.054 91.6711L100.178 95.2376C99.9062 95.4821 99.5524 95.6153 99.1869 95.6107Z" fill="#00236F"/>
<path d="M112.573 183.308C101.715 183.286 91.1006 180.093 82.0319 174.123C72.9632 168.152 65.8355 159.663 61.5239 149.698C50.1947 123.507 48.1571 97.973 48.1377 97.7186C47.9324 94.6967 47.9696 91.6633 48.2491 88.6474C49.538 74.8758 55.8837 62.0701 66.0609 52.7029C76.2381 43.3358 89.5249 38.0715 103.356 37.9267C117.187 37.7818 130.581 42.7666 140.952 51.9185C151.324 61.0705 157.936 73.7405 159.513 87.4821C159.513 87.516 159.513 87.5499 159.525 87.5863C159.789 89.9794 159.901 92.3869 159.86 94.7942C160.805 103.759 164.4 121.288 177.837 138.628C177.849 138.648 177.864 138.665 177.876 138.681C179.235 140.62 181.21 142.783 183.742 145.134C184.801 146.113 185.562 147.373 185.935 148.767C186.309 150.161 186.28 151.632 185.852 153.01C185.423 154.388 184.614 155.617 183.516 156.554C182.418 157.491 181.078 158.098 179.649 158.304C171.977 159.432 164.17 159.268 156.552 157.819C157.296 158.844 158.21 160.056 159.251 161.354C160.153 162.476 160.734 163.821 160.933 165.246C161.131 166.671 160.939 168.123 160.378 169.448C159.816 170.773 158.906 171.921 157.744 172.77C156.582 173.619 155.211 174.136 153.778 174.268C146.001 174.995 134.747 174.736 122.991 170.149C123.551 170.833 124.169 171.555 124.833 172.284C125.591 173.117 126.11 174.139 126.334 175.244C126.558 176.348 126.478 177.492 126.103 178.554C125.728 179.617 125.072 180.557 124.205 181.277C123.338 181.996 122.292 182.467 121.179 182.639L120.709 182.709C118.016 183.11 115.296 183.31 112.573 183.308ZM103.851 40.8134C90.6575 40.84 77.9478 45.7833 68.2037 54.6781C58.4596 63.5728 52.3807 75.7802 51.1541 88.9164C50.8884 91.7735 50.8527 94.6474 51.0475 97.5102C51.0645 97.7525 53.073 122.817 64.2035 148.542C68.2884 157.986 75.0416 166.03 83.634 171.69C92.2265 177.349 102.284 180.376 112.573 180.4C115.153 180.4 117.729 180.209 120.28 179.829L120.738 179.761C121.332 179.668 121.889 179.416 122.35 179.032C122.812 178.648 123.161 178.145 123.36 177.579C123.559 177.012 123.6 176.402 123.48 175.813C123.359 175.225 123.082 174.68 122.676 174.237C120.713 172.077 118.909 169.778 117.278 167.358C117.105 167.091 117.024 166.774 117.048 166.456C117.073 166.139 117.201 165.838 117.413 165.6C117.625 165.362 117.909 165.201 118.222 165.14C118.534 165.079 118.858 165.123 119.144 165.265C132.106 171.731 144.991 172.148 153.519 171.368C154.429 171.284 155.299 170.956 156.037 170.417C156.774 169.878 157.352 169.149 157.708 168.307C158.065 167.466 158.186 166.544 158.06 165.639C157.933 164.734 157.564 163.881 156.991 163.169C153.975 159.411 152.051 156.414 151.971 156.291C151.806 156.039 151.723 155.743 151.734 155.442C151.744 155.141 151.848 154.852 152.03 154.612C152.213 154.373 152.465 154.196 152.752 154.106C153.039 154.016 153.347 154.018 153.633 154.11C153.742 154.144 164.725 157.521 179.24 155.418C180.125 155.291 180.956 154.915 181.637 154.334C182.317 153.753 182.819 152.991 183.084 152.137C183.349 151.282 183.366 150.37 183.134 149.507C182.902 148.643 182.43 147.862 181.772 147.256C179.107 144.777 176.999 142.464 175.526 140.375C161.621 122.415 157.929 104.236 156.964 94.9953C156.964 94.9371 156.964 94.8766 156.964 94.816C157.011 92.4912 156.904 90.1659 156.645 87.8552C155.266 75.7539 149.764 64.4959 141.064 55.9723C132.364 47.4487 120.996 42.179 108.869 41.0484C107.192 40.8909 105.515 40.8134 103.851 40.8134Z" fill="#00236F"/>
<path d="M119.057 64.1574C118.727 64.1604 118.405 64.0511 118.146 63.8473C118.005 63.7382 115.083 61.5262 111.631 63.5202C111.296 63.713 110.899 63.7651 110.527 63.6651C110.154 63.5652 109.837 63.3213 109.644 62.9872C109.451 62.653 109.399 62.256 109.499 61.8834C109.599 61.5108 109.843 61.1932 110.177 61.0004C115.388 57.9937 119.771 61.4244 119.955 61.5722C120.19 61.7607 120.361 62.0175 120.444 62.3071C120.526 62.5967 120.517 62.9048 120.417 63.1889C120.317 63.4729 120.131 63.7189 119.885 63.8929C119.639 64.0668 119.346 64.1601 119.044 64.1598L119.057 64.1574Z" fill="#00236F"/>
<path d="M76.5891 66.8734C76.2967 66.8739 76.0109 66.7863 75.7691 66.6218C75.5273 66.4574 75.3407 66.2239 75.2337 65.9517C75.1266 65.6796 75.1042 65.3815 75.1692 65.0964C75.2342 64.8113 75.3838 64.5525 75.5982 64.3536C80.0078 60.259 85.0473 62.6262 85.2581 62.7279C85.6057 62.8947 85.8728 63.1927 86.0007 63.5564C86.1286 63.9201 86.1068 64.3198 85.9401 64.6674C85.7733 65.015 85.4753 65.2822 85.1116 65.4101C84.7479 65.538 84.3482 65.5162 84.0006 65.3494C83.8455 65.2768 80.4996 63.7697 77.5777 66.4833C77.3092 66.7334 76.9561 66.8728 76.5891 66.8734Z" fill="#00236F"/>
<path d="M109.152 120.362L105.244 112.147L95.0391 112.197L85.6821 126.495L102.678 128.249L109.152 120.362Z" fill="#D7DEF1"/>
<path d="M102.678 129.702C102.627 129.702 102.579 129.702 102.528 129.702L85.5341 127.946C85.2861 127.92 85.0488 127.832 84.845 127.688C84.6412 127.544 84.4778 127.35 84.3705 127.125C84.2632 126.9 84.2156 126.651 84.2323 126.403C84.2489 126.154 84.3293 125.914 84.4657 125.705L93.8227 111.41C93.9545 111.209 94.1342 111.044 94.3457 110.929C94.5571 110.814 94.7936 110.754 95.0341 110.753L105.239 110.703C105.514 110.703 105.782 110.781 106.014 110.927C106.246 111.074 106.432 111.283 106.55 111.531L110.46 119.747C110.579 119.996 110.624 120.274 110.59 120.547C110.557 120.821 110.446 121.08 110.271 121.293L103.795 129.182C103.658 129.345 103.488 129.476 103.295 129.566C103.102 129.656 102.891 129.703 102.678 129.702ZM88.2065 125.293L102.051 126.722L107.444 120.152L104.328 113.61L95.8264 113.654L88.2065 125.293Z" fill="#00236F"/>
<path d="M113.913 121.686C116.732 120.344 117.519 116.108 115.67 112.223C113.821 108.338 110.038 106.277 107.219 107.618C104.4 108.96 103.613 113.196 105.462 117.081C107.311 120.966 111.094 123.027 113.913 121.686Z" fill="#FFCE00"/>
<path d="M112.089 123.539C109.072 123.539 105.85 121.305 104.137 117.707C103.112 115.553 102.763 113.217 103.151 111.131C103.567 108.873 104.789 107.16 106.584 106.305C108.379 105.45 110.477 105.578 112.493 106.683C114.366 107.701 115.965 109.445 116.983 111.597C118 113.748 118.359 116.086 117.971 118.172C117.552 120.43 116.333 122.143 114.538 122.998C113.773 123.36 112.935 123.545 112.089 123.539ZM109.072 108.67C108.647 108.666 108.226 108.758 107.841 108.939C106.911 109.382 106.262 110.351 106.017 111.669C105.741 113.157 106.017 114.86 106.773 116.464C108.248 119.565 111.231 121.358 113.288 120.379C114.221 119.936 114.868 118.967 115.112 117.649C115.388 116.161 115.112 114.458 114.356 112.854C113.6 111.25 112.442 109.968 111.112 109.244C110.49 108.886 109.789 108.689 109.072 108.67Z" fill="#00236F"/>
<path d="M173.665 84.6231C168.875 77.4152 126.398 93.5585 117.266 98.5835L116.995 98.7361C104.527 105.937 113.52 124.835 126.972 119.699C127.069 119.662 127.163 119.626 127.26 119.585C136.92 115.667 176.24 92.8874 173.665 84.6231Z" fill="#FF2D4D"/>
<path d="M98.4989 121.848C98.1715 121.845 97.8546 121.731 97.5998 121.526C97.3449 121.32 97.1668 121.034 97.0945 120.715C97.0222 120.396 97.0598 120.061 97.2012 119.766C97.3426 119.471 97.5796 119.232 97.8738 119.088L104.835 115.776C105.007 115.694 105.194 115.647 105.385 115.637C105.575 115.627 105.766 115.655 105.946 115.719C106.126 115.782 106.292 115.881 106.434 116.009C106.576 116.137 106.691 116.292 106.773 116.464C106.855 116.637 106.902 116.823 106.912 117.014C106.922 117.205 106.894 117.396 106.83 117.576C106.766 117.756 106.668 117.921 106.54 118.063C106.412 118.205 106.257 118.32 106.085 118.402L99.1216 121.714C98.9267 121.805 98.7138 121.851 98.4989 121.848Z" fill="#00236F"/>
<path d="M98.4988 123.352C100.133 123.352 101.457 122.028 101.457 120.394C101.457 118.76 100.133 117.436 98.4988 117.436C96.865 117.436 95.5405 118.76 95.5405 120.394C95.5405 122.028 96.865 123.352 98.4988 123.352Z" fill="#00236F"/>
<path d="M173.665 84.6231C173.569 84.4846 173.461 84.3549 173.343 84.2355C166.316 93.6845 134.17 108.73 125.523 111.434L125.225 111.524C118.771 113.394 113.717 110.126 111.485 105.484C109.125 113.654 116.765 123.597 126.972 119.699C127.069 119.662 127.163 119.626 127.26 119.585C136.92 115.667 176.24 92.8874 173.665 84.6231Z" fill="#D6163B"/>
<path d="M122.456 122.032C117.06 122.032 112.886 118.536 110.952 114.468C108.454 109.208 109.045 101.644 116.268 97.4763L116.566 97.3091C121.516 94.5858 134.795 89.241 146.672 85.6237C153.633 83.5038 159.445 82.1542 163.942 81.6115C169.924 80.8847 173.391 81.5921 174.874 83.8187C174.95 83.9333 175.01 84.0581 175.051 84.1894C175.848 86.7407 174.2 89.8807 169.868 94.0673C166.612 97.217 161.9 100.873 155.862 104.939C145.567 111.875 133.044 118.807 127.808 120.929L127.49 121.055C125.886 121.686 124.18 122.017 122.456 122.032ZM167.923 84.2573C166.708 84.266 165.494 84.347 164.289 84.4995C159.959 85.0205 154.316 86.3361 147.515 88.4052C134.749 92.2817 122.151 97.5538 117.957 99.8579C117.874 99.9015 117.794 99.9476 117.714 99.9936C112.057 103.262 111.555 108.99 113.566 113.217C115.577 117.445 120.35 120.67 126.444 118.342L126.705 118.238C131.134 116.442 143.161 109.983 154.229 102.528C160.124 98.5569 164.703 95.0171 167.838 91.9764C170.845 89.069 172.487 86.5929 172.311 85.2627C171.69 84.6013 170.145 84.2573 167.923 84.2573Z" fill="#00236F"/>
<path d="M61.1435 91.6033L14.9133 103.718C48.2492 138.035 38.4827 178.884 38.4827 178.884L93.658 168.465C93.658 168.465 101.169 129.295 75.6684 96.4587C73.9941 94.3096 71.7226 92.7024 69.1388 91.8387C66.555 90.975 63.7737 90.8931 61.1435 91.6033Z" fill="#FFCE00"/>
<path d="M47.5054 141.572C46.4829 135.636 41.7608 131.306 36.9539 131.902C36.49 131.96 36.0331 132.064 35.5898 132.212C37.7337 139.136 39.2326 146.244 40.0672 153.444C40.2635 153.444 40.4573 153.424 40.6536 153.4C45.4605 152.802 48.5278 147.508 47.5054 141.572Z" fill="#FFA700"/>
<path d="M38.4827 180.337C38.2628 180.338 38.0458 180.288 37.8479 180.192C37.65 180.096 37.4764 179.957 37.3402 179.784C37.204 179.612 37.1087 179.41 37.0615 179.196C37.0143 178.981 37.0165 178.758 37.0678 178.544C37.092 178.445 39.4397 168.327 37.7413 154.222C36.7636 146.026 34.5923 138.018 31.2966 130.451C27.1971 121.067 21.3339 112.415 13.8715 104.735C13.6935 104.553 13.5665 104.327 13.5032 104.081C13.4399 103.834 13.4424 103.575 13.5106 103.33C13.5788 103.084 13.7103 102.861 13.8918 102.683C14.0734 102.504 14.2986 102.376 14.5451 102.312L60.768 90.1981C63.6748 89.4106 66.7497 89.5007 69.6054 90.4569C72.4612 91.4132 74.9703 93.1928 76.8169 95.5719C90.2006 112.81 94.4575 131.772 95.6714 144.644C96.9846 158.588 95.1626 168.335 95.0851 168.744C95.0299 169.03 94.8899 169.293 94.6834 169.499C94.4769 169.705 94.2133 169.843 93.9269 169.897L38.7516 180.316C38.663 180.332 38.5729 180.34 38.4827 180.337ZM17.6584 104.502C24.456 111.816 29.9777 120.219 33.9932 129.361C37.4015 137.204 39.6414 145.505 40.6415 153.999C41.9328 164.851 40.9467 173.277 40.3168 177.059L92.386 167.23C92.8027 164.451 93.8252 155.915 92.7664 144.819C91.5816 132.358 87.4507 114.01 74.52 97.3551C73.0243 95.4277 70.9916 93.9862 68.678 93.2123C66.3643 92.4384 63.8734 92.3666 61.5191 93.0061L17.6584 104.502Z" fill="#00236F"/>
<path d="M60.8553 91.6808L11.6717 104.592C11.6717 104.592 5.80839 107.216 6.51344 114.809C6.83567 118.288 8.49047 120.362 10.1889 121.593L59.3725 108.679C57.6765 107.451 56.0217 105.377 55.6971 101.896C54.9847 94.2951 60.8553 91.6808 60.8553 91.6808Z" fill="#FFCE00"/>
<path d="M10.1888 123.044C9.88334 123.044 9.58578 122.947 9.33837 122.768C6.85254 120.973 5.37461 118.267 5.0669 114.943C4.27221 106.402 10.8139 103.388 11.0877 103.264C11.1589 103.232 11.2326 103.207 11.3081 103.187L60.4918 90.2732C60.8444 90.1801 61.2191 90.2229 61.5416 90.3932C61.8642 90.5635 62.1109 90.8488 62.2329 91.1925C62.3549 91.5362 62.3432 91.9132 62.2002 92.2487C62.0572 92.5842 61.7933 92.8537 61.4609 93.0037C61.2453 93.1055 56.5498 95.3563 57.1458 101.76C57.3881 104.26 58.413 106.191 60.2252 107.5C60.4488 107.661 60.6218 107.883 60.7241 108.139C60.8264 108.395 60.8537 108.675 60.8029 108.946C60.7521 109.217 60.6252 109.468 60.4372 109.67C60.2491 109.871 60.0075 110.015 59.7407 110.085L10.5716 122.998C10.4465 123.03 10.3178 123.046 10.1888 123.044ZM12.1828 105.963C11.5092 106.308 7.40252 108.67 7.95977 114.674C8.17056 116.922 9.03067 118.712 10.5207 120.004L56.4965 107.931C55.1852 106.227 54.4018 104.176 54.2433 102.031C53.9404 98.7701 54.706 96.3133 55.7842 94.5204L12.1828 105.963Z" fill="#00236F"/>
<path d="M38.5857 148.354C42.1526 147.483 44.111 142.957 42.9601 138.247C41.8091 133.536 37.9846 130.424 34.4178 131.295C30.8509 132.167 28.8925 136.692 30.0435 141.403C31.1944 146.113 35.0189 149.226 38.5857 148.354Z" fill="white"/>
<path d="M37.3609 150.19C35.631 150.19 33.8963 149.536 32.3505 148.278C30.4534 146.735 29.0554 144.436 28.411 141.8C27.7665 139.166 27.9482 136.469 28.9198 134.236C29.9592 131.827 31.7739 130.199 34.0247 129.649C36.2755 129.099 38.6281 129.707 40.6705 131.362C42.5676 132.908 43.968 135.207 44.6101 137.841C45.2521 140.474 45.0753 143.171 44.1037 145.407C43.0619 147.813 41.2472 149.441 38.9964 149.991C38.4612 150.123 37.9121 150.19 37.3609 150.19ZM31.6939 140.998C32.1639 142.921 33.1476 144.576 34.485 145.659C35.6771 146.628 36.9951 147.002 38.1944 146.711C39.3937 146.42 40.3895 145.478 41 144.065C41.6809 142.493 41.7972 140.566 41.3271 138.643C40.8571 136.719 39.8734 135.067 38.5384 133.984C37.344 133.014 36.026 132.641 34.8266 132.932C33.6273 133.223 32.6316 134.165 32.021 135.578C31.3402 137.15 31.2239 139.076 31.6939 140.998Z" fill="#00236F"/>
<path d="M117.101 38.9332L116.745 34.0633C116.596 32.0166 115.742 30.0849 114.328 28.5974C112.914 27.1099 111.029 26.1586 108.992 25.9056L94.2322 24.0594L82.496 31.4006C81.1279 32.2559 80.0192 33.4683 79.2891 34.907C78.5591 36.3458 78.2354 37.9565 78.3529 39.5656L78.7527 44.9491C78.8616 46.4511 79.4878 47.8688 80.5246 48.9609C81.5614 50.0529 82.9448 50.7518 84.4391 50.9384L95.7852 52.3582C99.2338 52.7906 102.726 52.0204 105.673 50.1776L114.058 44.9322C115.063 44.3039 115.878 43.4131 116.414 42.356C116.951 41.2989 117.188 40.1154 117.101 38.9332Z" fill="#1157AA"/>
<path d="M100.876 47.498C100.927 48.1649 100.83 48.8349 100.592 49.4601C100.354 50.0852 99.981 50.6502 99.4997 51.1146C99.0183 51.5791 98.4404 51.9316 97.8071 52.147C97.1739 52.3623 96.5009 52.4353 95.8362 52.3606H95.7853L84.4392 50.9408C82.9445 50.7541 81.5608 50.0549 80.524 48.9624C79.4871 47.8698 78.8611 46.4515 78.7528 44.9492L78.3603 39.568C78.2277 37.7622 78.6504 35.9589 79.5717 34.4001L96.1487 35.8538C97.2379 35.9493 98.2575 36.4293 99.0251 37.208C99.7926 37.9866 100.258 39.013 100.338 40.1035L100.876 47.498Z" fill="#318AD3"/>
<path d="M97.6484 53.9136C96.9657 53.914 96.2835 53.8719 95.606 53.7876L84.2574 52.3679C82.4322 52.1339 80.7435 51.2776 79.4763 49.9433C78.2091 48.609 77.441 46.8785 77.3014 45.0436L76.9114 39.6625C76.7735 37.7911 77.1498 35.9175 77.9996 34.2445C78.8494 32.5714 80.1403 31.1624 81.7328 30.1698L93.469 22.8286C93.753 22.6517 94.0893 22.5781 94.4212 22.6202L109.181 24.464C111.548 24.7651 113.738 25.8747 115.381 27.6049C117.024 29.3352 118.018 31.5799 118.197 33.9591L118.55 38.829C118.658 40.2741 118.368 41.721 117.713 43.0132C117.057 44.3055 116.061 45.3939 114.831 46.1605L106.443 51.406C103.804 53.048 100.757 53.9168 97.6484 53.9136ZM94.5714 25.5664L83.2737 32.6314C82.1295 33.3463 81.202 34.36 80.5915 35.5632C79.9809 36.7663 79.7104 38.1134 79.8091 39.459L80.2016 44.8425C80.2894 46.0077 80.7769 47.1069 81.5817 47.9541C82.3865 48.8013 83.4592 49.3445 84.6184 49.492L95.9646 50.9117C99.0819 51.2999 102.238 50.6035 104.902 48.9395L113.3 43.6941C114.081 43.2079 114.714 42.5171 115.131 41.6966C115.547 40.8762 115.731 39.9573 115.662 39.0398L115.308 34.1699C115.18 32.4609 114.466 30.8486 113.286 29.6058C112.106 28.363 110.532 27.566 108.832 27.3496L94.5714 25.5664Z" fill="#00236F"/>
<path d="M96.7083 30.0958C102.493 29.5752 106.953 26.604 106.67 23.4595C106.387 20.315 101.468 18.1879 95.6834 18.7085C89.8988 19.2291 85.4389 22.2003 85.7219 25.3448C86.0049 28.4893 90.9237 30.6164 96.7083 30.0958Z" fill="#318AD3"/>
<path d="M94.6077 31.4103C88.822 31.4103 84.2961 28.9003 83.9666 25.2927C83.6008 21.3023 88.5312 17.6995 95.1916 17.0865C98.2153 16.8103 101.14 17.2004 103.429 18.1865C106.007 19.2986 107.531 21.0503 107.727 23.1218C107.924 25.1933 106.736 27.1897 104.401 28.7501C102.329 30.1335 99.5261 31.0469 96.5024 31.3231C95.8555 31.3813 95.2231 31.4103 94.6077 31.4103ZM86.8546 25.0286C87.0364 27.025 90.9299 28.9051 96.2213 28.4205C98.7338 28.1928 101.12 27.4272 102.763 26.3248C104.166 25.4041 104.912 24.3308 104.82 23.3859C104.728 22.441 103.805 21.5203 102.271 20.8589C100.459 20.0739 97.9682 19.7516 95.4581 19.9939C90.1642 20.4785 86.6778 23.0418 86.8619 25.0383L86.8546 25.0286Z" fill="#00236F"/>
<path d="M94.5544 31.4127C92.2454 31.4127 90.0673 31.0275 88.2817 30.2861C85.6941 29.2128 84.1628 27.5023 83.9836 25.472C83.8043 23.4416 84.989 21.484 87.3392 19.96C89.4083 18.6177 92.2091 17.7261 95.2255 17.4499C98.242 17.1737 101.159 17.542 103.437 18.4869C106.024 19.5602 107.555 21.2707 107.737 23.3011C107.919 25.3314 106.732 27.2891 104.381 28.813C102.312 30.1553 99.5115 31.0493 96.4951 31.3231C95.8409 31.3845 95.194 31.4144 94.5544 31.4127ZM97.1396 20.2677C96.5968 20.2677 96.0444 20.2943 95.4896 20.3452C92.9723 20.5875 90.5785 21.3144 88.9213 22.3998C87.5403 23.2938 86.7965 24.3187 86.8764 25.2079C86.9588 26.097 87.8771 26.9693 89.3962 27.5992C91.2206 28.3576 93.7112 28.658 96.2286 28.4278C98.7459 28.1976 101.142 27.4587 102.799 26.3757C104.178 25.4792 104.924 24.4544 104.842 23.5652C104.759 22.676 103.844 21.8038 102.322 21.1738C100.9 20.5827 99.0706 20.2677 97.1396 20.2677Z" fill="#00236F"/>
<path d="M99.9811 25.6938C102.138 25.4964 103.811 24.4969 103.716 23.4616C103.621 22.4262 101.795 21.7469 99.6379 21.9444C97.4806 22.1419 95.8085 23.1413 95.9033 24.1767C95.9981 25.2121 97.8238 25.8913 99.9811 25.6938Z" fill="#00236F"/>
<path d="M96.9386 37.9593C96.3376 37.9584 95.7373 37.9211 95.1408 37.8478L79.4772 35.8877C79.2877 35.864 79.1047 35.8032 78.9388 35.7088C78.7728 35.6144 78.627 35.4883 78.5098 35.3375C78.3926 35.1868 78.3062 35.0144 78.2556 34.8303C78.205 34.6462 78.1912 34.4539 78.2149 34.2644C78.2386 34.075 78.2994 33.892 78.3938 33.726C78.4882 33.5601 78.6143 33.4143 78.7651 33.2971C78.9158 33.1799 79.0882 33.0935 79.2723 33.0429C79.4564 32.9923 79.6487 32.9784 79.8382 33.0021L95.5018 34.9622C98.165 35.2895 100.86 34.6907 103.134 33.2662L113.324 27.0904C113.488 26.9875 113.67 26.9181 113.86 26.8863C114.05 26.8545 114.245 26.861 114.433 26.9053C114.621 26.9496 114.798 27.0309 114.954 27.1444C115.111 27.258 115.242 27.4015 115.343 27.5665C115.443 27.7316 115.509 27.915 115.537 28.1059C115.566 28.2968 115.556 28.4915 115.508 28.6786C115.461 28.8657 115.376 29.0414 115.26 29.1955C115.144 29.3496 114.998 29.4791 114.831 29.5762L104.655 35.7424C102.341 37.1888 99.6676 37.9569 96.9386 37.9593Z" fill="#00236F"/>
<path d="M131.859 113.472C127.781 112.108 123.272 114.053 121.7 118.056C121.297 119.078 121.1 120.17 121.121 121.269C121.121 121.269 120.767 127.524 130.42 132.772L146.769 115.681C141.71 115.783 136.671 115.036 131.859 113.472Z" fill="white"/>
<path d="M130.42 134.223C130.177 134.224 129.939 134.163 129.727 134.047C119.822 128.663 119.648 122.063 119.667 121.256C119.648 119.98 119.879 118.713 120.348 117.525C122.184 112.849 127.442 110.463 132.319 112.091C136.961 113.59 141.819 114.312 146.696 114.228C147.082 114.209 147.459 114.343 147.746 114.602C148.032 114.861 148.203 115.223 148.223 115.609C148.242 115.994 148.107 116.372 147.848 116.658C147.589 116.944 147.227 117.116 146.842 117.135C141.602 117.252 136.381 116.481 131.398 114.855C127.99 113.717 124.324 115.359 123.054 118.591C122.719 119.435 122.555 120.337 122.57 121.244C122.57 121.281 122.57 121.317 122.57 121.351C122.57 121.554 122.507 126.819 131.113 131.498C131.396 131.652 131.621 131.897 131.75 132.193C131.879 132.489 131.906 132.82 131.826 133.133C131.747 133.447 131.565 133.724 131.31 133.923C131.054 134.121 130.74 134.228 130.417 134.228L130.42 134.223Z" fill="#00236F"/>
</svg>
