<svg width="200" height="200" viewBox="0 0 200 200" fill="none" xmlns="http://www.w3.org/2000/svg">
<rect width="200" height="200" fill="white"/>
<path d="M124.503 188.932C100.233 192.54 76.6107 179.304 66.8685 156.795C55.5029 130.525 53.5962 105.281 53.5962 105.281C53.3968 102.341 53.4333 99.3892 53.7052 96.4547C56.4987 66.4987 83.0482 44.48 113.004 47.2711C139.171 49.7109 159.259 70.2566 162.084 95.3669C162.351 97.7427 162.461 100.134 162.413 102.524C163.404 112.031 167.123 129.66 180.696 147.189C182.295 149.459 184.512 151.778 186.753 153.869C190.574 157.411 188.597 163.788 183.441 164.529C168.385 166.71 157.187 163.17 157.187 163.17C157.187 163.17 159.125 166.184 162.118 169.925C165.369 173.971 162.813 180.006 157.645 180.481C148.586 181.315 135.597 180.767 122.499 174.228C124.09 176.582 125.847 178.819 127.757 180.922C128.339 181.56 128.738 182.344 128.91 183.191C129.082 184.037 129.021 184.915 128.734 185.73C128.447 186.544 127.944 187.266 127.279 187.818C126.614 188.369 125.812 188.73 124.958 188.862L124.503 188.932Z" fill="white"/>
<path d="M93.7307 49.7278C93.4133 56.9964 101.321 63.2327 111.391 63.6713C121.261 64.1001 129.538 58.7965 130.165 51.7509C118.736 46.6669 105.909 45.6544 93.8227 48.8823C93.7719 49.1609 93.7428 49.4444 93.7307 49.7278Z" fill="#D7DEF1"/>
<path d="M66.8687 156.796C76.6109 179.313 100.234 192.549 124.503 188.942L124.968 188.871C125.822 188.74 126.624 188.379 127.289 187.827C127.954 187.276 128.457 186.554 128.744 185.739C129.031 184.924 129.092 184.047 128.92 183.2C128.748 182.354 128.349 181.57 127.767 180.932C125.857 178.829 124.1 176.593 122.509 174.24C135.592 180.782 148.596 181.327 157.655 180.493C162.823 180.009 165.379 173.983 162.127 169.937C159.123 166.196 157.197 163.182 157.197 163.182C157.197 163.182 168.395 166.724 183.451 164.541C188.607 163.795 190.584 157.418 186.763 153.881C184.512 151.79 175.86 140.012 174.263 137.74C174.263 137.723 131.51 194.851 66.8687 156.796Z" fill="#D7DEF1"/>
<path d="M164.712 114.948C164.712 114.948 154.895 121.933 147.808 125.417C147.808 125.417 130.681 136.032 121.811 134.743C121.811 134.743 119.517 136.553 116.638 135.567L110.295 142.045L96.1195 139.295L94.2515 132.325L162.413 102.524L164.712 114.948Z" fill="#D7DEF1"/>
<path d="M119.513 99.2758C124.885 98.9943 128.958 93.3921 128.61 86.7629C128.263 80.1337 123.627 74.9878 118.255 75.2694C112.883 75.5509 108.81 81.1531 109.157 87.7823C109.505 94.4115 114.141 99.5574 119.513 99.2758Z" fill="#00236F"/>
<path d="M118.793 85.5687C121.035 85.4512 122.774 83.8534 122.677 82C122.58 80.1466 120.683 78.7394 118.441 78.8569C116.199 78.9744 114.46 80.5722 114.557 82.4256C114.654 84.279 116.551 85.6862 118.793 85.5687Z" fill="#1157AA"/>
<path d="M86.6924 100.996C92.0641 100.714 96.1372 95.1122 95.7898 88.483C95.4423 81.8538 90.806 76.708 85.4342 76.9895C80.0625 77.271 75.9894 82.8733 76.3368 89.5025C76.6842 96.1317 81.3206 101.278 86.6924 100.996Z" fill="#00236F"/>
<path d="M85.9747 87.2863C88.2169 87.1687 89.9559 85.571 89.8588 83.7176C89.7616 81.8642 87.8652 80.457 85.6229 80.5745C83.3807 80.692 81.6417 82.2898 81.7389 84.1432C81.836 85.9966 83.7324 87.4038 85.9747 87.2863Z" fill="#1157AA"/>
<path d="M103.187 103.275C102.874 103.276 102.57 103.174 102.32 102.987L98.0844 99.837C97.7747 99.6073 97.5689 99.2639 97.5123 98.8825C97.4557 98.501 97.553 98.1127 97.7828 97.803C98.0125 97.4933 98.3558 97.2875 98.7373 97.2309C99.1187 97.1744 99.507 97.2716 99.8167 97.5014L103.088 99.9242L106.087 97.1937C106.228 97.0645 106.392 96.9643 106.572 96.8987C106.751 96.8332 106.942 96.8037 107.132 96.8118C107.323 96.8199 107.51 96.8655 107.684 96.946C107.857 97.0264 108.012 97.1403 108.142 97.2809C108.271 97.4215 108.371 97.5862 108.437 97.7656C108.502 97.9449 108.532 98.1355 108.523 98.3262C108.515 98.517 108.47 98.7043 108.389 98.8775C108.309 99.0507 108.195 99.2063 108.054 99.3355L104.178 102.902C103.906 103.146 103.552 103.28 103.187 103.275Z" fill="#00236F"/>
<path d="M116.573 190.972C105.715 190.95 95.1006 187.757 86.0319 181.787C76.9632 175.816 69.8355 167.327 65.5239 157.362C54.1947 131.172 52.1571 105.637 52.1377 105.383C51.9324 102.361 51.9696 99.3276 52.2491 96.3118C53.538 82.5401 59.8837 69.7344 70.0609 60.3672C80.2381 51.0001 93.5249 45.7358 107.356 45.591C121.187 45.4461 134.581 50.4309 144.952 59.5828C155.324 68.7348 161.936 81.4048 163.513 95.1464C163.513 95.1803 163.513 95.2142 163.525 95.2506C163.789 97.6437 163.901 100.051 163.86 102.459C164.805 111.423 168.4 128.952 181.837 146.292C181.849 146.312 181.864 146.329 181.876 146.346C183.235 148.284 185.21 150.448 187.742 152.798C188.801 153.777 189.562 155.037 189.935 156.431C190.309 157.825 190.28 159.296 189.852 160.674C189.423 162.053 188.614 163.281 187.516 164.218C186.418 165.155 185.078 165.762 183.649 165.968C175.977 167.097 168.17 166.933 160.552 165.484C161.296 166.509 162.21 167.72 163.251 169.019C164.153 170.14 164.734 171.485 164.933 172.91C165.131 174.335 164.939 175.788 164.378 177.113C163.816 178.438 162.906 179.585 161.744 180.434C160.582 181.283 159.211 181.801 157.778 181.932C150.001 182.659 138.747 182.4 126.991 177.814C127.551 178.497 128.169 179.219 128.833 179.948C129.591 180.781 130.11 181.804 130.334 182.908C130.558 184.012 130.478 185.156 130.103 186.218C129.728 187.281 129.072 188.222 128.205 188.941C127.338 189.66 126.292 190.131 125.179 190.303L124.709 190.374C122.016 190.774 119.296 190.974 116.573 190.972ZM107.851 48.4777C94.6575 48.5043 81.9478 53.4476 72.2037 62.3424C62.4596 71.2371 56.3807 83.4445 55.1541 96.5807C54.8884 99.4378 54.8527 102.312 55.0475 105.175C55.0645 105.417 57.073 130.481 68.2035 156.207C72.2884 165.65 79.0416 173.695 87.634 179.354C96.2265 185.013 106.284 188.041 116.573 188.065C119.153 188.065 121.729 187.874 124.28 187.493L124.738 187.425C125.332 187.332 125.889 187.08 126.35 186.696C126.812 186.312 127.161 185.81 127.36 185.243C127.559 184.676 127.6 184.066 127.48 183.477C127.359 182.889 127.082 182.344 126.676 181.901C124.713 179.742 122.909 177.443 121.278 175.022C121.105 174.755 121.024 174.438 121.048 174.121C121.073 173.803 121.201 173.502 121.413 173.264C121.625 173.026 121.909 172.865 122.222 172.804C122.534 172.744 122.858 172.788 123.144 172.929C136.106 179.396 148.991 179.812 157.519 179.032C158.429 178.949 159.299 178.62 160.037 178.081C160.774 177.542 161.352 176.813 161.708 175.972C162.065 175.13 162.186 174.208 162.06 173.303C161.933 172.399 161.564 171.545 160.991 170.833C157.975 167.076 156.051 164.079 155.971 163.955C155.806 163.703 155.723 163.407 155.734 163.106C155.744 162.806 155.848 162.516 156.03 162.277C156.213 162.037 156.465 161.861 156.752 161.771C157.039 161.681 157.347 161.682 157.633 161.774C157.742 161.808 168.725 165.186 183.24 163.083C184.125 162.955 184.956 162.579 185.637 161.998C186.317 161.417 186.819 160.656 187.084 159.801C187.349 158.947 187.366 158.035 187.134 157.171C186.902 156.307 186.43 155.527 185.772 154.92C183.107 152.442 180.999 150.128 179.526 148.039C165.621 130.079 161.929 111.9 160.964 102.66C160.964 102.601 160.964 102.541 160.964 102.48C161.011 100.156 160.904 97.8302 160.645 95.5195C159.266 83.4182 153.764 72.1602 145.064 63.6366C136.364 55.1131 124.996 49.8433 112.869 48.7127C111.192 48.5552 109.515 48.4777 107.851 48.4777Z" fill="#00236F"/>
<path d="M123.057 71.8217C122.727 71.8247 122.405 71.7154 122.146 71.5116C122.005 71.4025 119.083 69.1905 115.631 71.1845C115.296 71.3773 114.899 71.4294 114.527 71.3294C114.154 71.2295 113.837 70.9856 113.644 70.6515C113.451 70.3173 113.399 69.9203 113.499 69.5477C113.599 69.1751 113.843 68.8575 114.177 68.6647C119.388 65.658 123.771 69.0887 123.955 69.2365C124.19 69.425 124.361 69.6818 124.444 69.9714C124.526 70.261 124.517 70.5691 124.417 70.8532C124.317 71.1372 124.131 71.3833 123.885 71.5572C123.639 71.7311 123.346 71.8244 123.044 71.8241L123.057 71.8217Z" fill="#00236F"/>
<path d="M80.5891 74.5377C80.2967 74.5382 80.0109 74.4506 79.7691 74.2861C79.5273 74.1217 79.3407 73.8882 79.2337 73.616C79.1266 73.3439 79.1042 73.0458 79.1692 72.7607C79.2342 72.4756 79.3838 72.2168 79.5982 72.018C84.0078 67.9234 89.0473 70.2905 89.2581 70.3922C89.6057 70.559 89.8728 70.857 90.0007 71.2207C90.1286 71.5844 90.1068 71.9841 89.9401 72.3317C89.7733 72.6793 89.4753 72.9465 89.1116 73.0744C88.7479 73.2023 88.3482 73.1805 88.0006 73.0137C87.8455 72.9411 84.4996 71.4341 81.5777 74.1476C81.3092 74.3978 80.9561 74.5371 80.5891 74.5377Z" fill="#00236F"/>
<path d="M113.152 128.027L109.244 119.811L99.0391 119.862L89.6821 134.159L106.678 135.913L113.152 128.027Z" fill="#D7DEF1"/>
<path d="M106.678 137.367C106.627 137.367 106.579 137.367 106.528 137.367L89.5341 135.61C89.2861 135.585 89.0488 135.496 88.845 135.352C88.6412 135.208 88.4778 135.015 88.3705 134.79C88.2632 134.565 88.2156 134.316 88.2323 134.067C88.2489 133.818 88.3293 133.578 88.4657 133.369L97.8227 119.074C97.9545 118.873 98.1342 118.708 98.3457 118.593C98.5571 118.479 98.7936 118.418 99.0341 118.418L109.239 118.367C109.514 118.367 109.782 118.445 110.014 118.592C110.246 118.738 110.432 118.948 110.55 119.195L114.46 127.411C114.579 127.66 114.624 127.938 114.59 128.212C114.557 128.485 114.446 128.744 114.271 128.957L107.795 136.846C107.658 137.009 107.488 137.14 107.295 137.231C107.102 137.321 106.891 137.367 106.678 137.367ZM92.2065 132.957L106.051 134.387L111.444 127.816L108.328 121.274L99.8264 121.318L92.2065 132.957Z" fill="#00236F"/>
<path d="M117.913 129.35C120.732 128.008 121.519 123.772 119.67 119.887C117.821 116.003 114.038 113.941 111.219 115.283C108.4 116.624 107.613 120.861 109.462 124.745C111.311 128.63 115.094 130.691 117.913 129.35Z" fill="#FFCE00"/>
<path d="M116.089 131.203C113.072 131.203 109.85 128.969 108.137 125.371C107.112 123.217 106.763 120.882 107.151 118.796C107.567 116.538 108.789 114.825 110.584 113.969C112.379 113.114 114.477 113.243 116.493 114.347C118.366 115.365 119.965 117.109 120.983 119.261C122 121.412 122.359 123.75 121.971 125.836C121.552 128.095 120.333 129.808 118.538 130.663C117.773 131.025 116.935 131.209 116.089 131.203ZM113.072 116.334C112.647 116.331 112.226 116.423 111.841 116.603C110.911 117.046 110.262 118.016 110.017 119.334C109.741 120.821 110.017 122.524 110.773 124.128C112.248 127.23 115.231 129.023 117.288 128.044C118.221 127.6 118.868 126.631 119.112 125.313C119.388 123.826 119.112 122.122 118.356 120.518C117.6 118.914 116.442 117.633 115.112 116.908C114.49 116.55 113.789 116.353 113.072 116.334Z" fill="#00236F"/>
<path d="M177.665 92.2874C172.875 85.0795 130.398 101.223 121.266 106.248L120.995 106.4C108.527 113.601 117.52 132.499 130.972 127.363C131.069 127.327 131.163 127.29 131.26 127.249C140.92 123.331 180.24 100.552 177.665 92.2874Z" fill="#FF2D4D"/>
<path d="M102.499 129.512C102.171 129.509 101.855 129.395 101.6 129.19C101.345 128.984 101.167 128.699 101.095 128.379C101.022 128.06 101.06 127.726 101.201 127.43C101.343 127.135 101.58 126.896 101.874 126.752L108.835 123.44C109.007 123.358 109.194 123.311 109.385 123.301C109.575 123.291 109.766 123.319 109.946 123.383C110.126 123.447 110.292 123.546 110.434 123.673C110.576 123.801 110.691 123.956 110.773 124.128C110.855 124.301 110.902 124.488 110.912 124.678C110.922 124.869 110.894 125.06 110.83 125.24C110.766 125.42 110.668 125.586 110.54 125.727C110.412 125.869 110.257 125.985 110.085 126.067L103.122 129.379C102.927 129.469 102.714 129.515 102.499 129.512Z" fill="#00236F"/>
<path d="M102.499 131.016C104.133 131.016 105.457 129.692 105.457 128.058C105.457 126.424 104.133 125.1 102.499 125.1C100.865 125.1 99.5405 126.424 99.5405 128.058C99.5405 129.692 100.865 131.016 102.499 131.016Z" fill="#00236F"/>
<path d="M177.665 92.2874C177.569 92.149 177.461 92.0192 177.343 91.8998C170.316 101.349 138.17 116.395 129.523 119.099L129.225 119.188C122.771 121.059 117.717 117.79 115.485 113.148C113.125 121.318 120.765 131.261 130.972 127.363C131.069 127.327 131.163 127.29 131.26 127.249C140.92 123.331 180.24 100.552 177.665 92.2874Z" fill="#D6163B"/>
<path d="M126.456 129.696C121.06 129.696 116.886 126.2 114.952 122.132C112.454 116.872 113.045 109.308 120.268 105.141L120.566 104.973C125.516 102.25 138.795 96.9054 150.672 93.2881C157.633 91.1681 163.445 89.8186 167.942 89.2758C173.924 88.549 177.391 89.2564 178.874 91.483C178.95 91.5976 179.01 91.7224 179.051 91.8537C179.848 94.405 178.2 97.545 173.868 101.732C170.612 104.881 165.9 108.537 159.862 112.603C149.567 119.54 137.044 126.471 131.808 128.594L131.49 128.72C129.886 129.35 128.18 129.681 126.456 129.696ZM171.923 91.9216C170.708 91.9304 169.494 92.0113 168.289 92.1639C163.959 92.6848 158.316 94.0004 151.515 96.0695C138.749 99.946 126.151 105.218 121.957 107.522C121.874 107.566 121.794 107.612 121.714 107.658C116.057 110.926 115.555 116.654 117.566 120.882C119.577 125.11 124.35 128.334 130.444 126.006L130.705 125.902C135.134 124.107 147.161 117.647 158.229 110.192C164.124 106.221 168.703 102.681 171.838 99.6407C174.845 96.7333 176.487 94.2572 176.311 92.9271C175.69 92.2656 174.145 91.9216 171.923 91.9216Z" fill="#00236F"/>
<path d="M176.417 110.519C176.033 110.48 175.672 110.319 175.385 110.061C175.098 109.802 174.901 109.459 174.823 109.081C174.744 108.703 174.788 108.31 174.948 107.959C175.108 107.608 175.376 107.316 175.712 107.127C179.165 105.238 180.972 101.71 180.989 101.676C181.204 101.244 181.582 100.916 182.039 100.763C182.496 100.61 182.995 100.645 183.426 100.859C183.858 101.074 184.186 101.452 184.339 101.909C184.493 102.366 184.458 102.865 184.243 103.297C184.151 103.483 181.934 107.864 177.459 110.323C177.139 110.49 176.776 110.558 176.417 110.519Z" fill="#D7DEF1"/>
<path d="M182.872 114.328C182.492 114.292 182.134 114.137 181.847 113.887C181.561 113.636 181.36 113.302 181.273 112.931C181.186 112.56 181.218 112.171 181.364 111.819C181.51 111.468 181.763 111.171 182.087 110.97C183.282 110.25 184.275 109.239 184.975 108.031C185.079 107.817 185.225 107.625 185.404 107.467C185.583 107.309 185.791 107.187 186.017 107.11C186.242 107.032 186.481 107 186.719 107.014C186.957 107.029 187.19 107.09 187.405 107.195C187.619 107.3 187.811 107.446 187.969 107.624C188.127 107.803 188.248 108.011 188.326 108.237C188.404 108.463 188.436 108.701 188.421 108.94C188.407 109.178 188.345 109.411 188.241 109.625C187.248 111.459 185.781 112.992 183.993 114.064C183.658 114.271 183.264 114.364 182.872 114.328Z" fill="#D7DEF1"/>
<path d="M65.1435 99.2676L18.9133 111.382C52.2492 145.699 42.4827 186.548 42.4827 186.548L97.658 176.13C97.658 176.13 105.169 136.96 79.6684 104.123C77.9941 101.974 75.7226 100.367 73.1388 99.503C70.555 98.6393 67.7737 98.5574 65.1435 99.2676Z" fill="#FFCE00"/>
<path d="M51.5054 149.236C50.4829 143.3 45.7608 138.971 40.9539 139.567C40.49 139.624 40.0331 139.728 39.5898 139.877C41.7337 146.801 43.2326 153.908 44.0672 161.108C44.2635 161.108 44.4573 161.089 44.6536 161.065C49.4605 160.466 52.5278 155.172 51.5054 149.236Z" fill="#FFA700"/>
<path d="M43.556 165.484C43.556 165.484 44.1108 177.487 42.4827 186.548L85.5607 178.417C85.5607 178.417 57.2135 182.432 43.556 165.484Z" fill="#FFA700"/>
<path d="M81.597 106.713C81.597 106.713 73.4417 104.644 72.3078 109.378C71.174 114.112 77.0493 117.858 77.0493 117.858L33.3147 131.038C33.3147 131.038 26.6034 118.401 18.9133 111.387L64.8552 99.3452C64.8552 99.3452 74.4157 94.8169 81.597 106.713Z" fill="#FFA700"/>
<path d="M42.4827 188.002C42.2628 188.002 42.0458 187.952 41.8479 187.856C41.65 187.761 41.4764 187.621 41.3402 187.449C41.204 187.276 41.1087 187.075 41.0615 186.86C41.0143 186.645 41.0165 186.423 41.0678 186.209C41.092 186.109 43.4397 175.992 41.7413 161.886C40.7636 153.691 38.5923 145.682 35.2966 138.115C31.1971 128.732 25.3339 120.08 17.8715 112.399C17.6935 112.217 17.5665 111.992 17.5032 111.745C17.4399 111.498 17.4424 111.239 17.5106 110.994C17.5788 110.749 17.7103 110.526 17.8918 110.347C18.0734 110.168 18.2986 110.041 18.5451 109.977L64.768 97.8624C67.6748 97.0749 70.7497 97.165 73.6054 98.1212C76.4612 99.0775 78.9703 100.857 80.8169 103.236C94.2006 120.475 98.4575 139.436 99.6714 152.308C100.985 166.252 99.1626 175.999 99.0851 176.408C99.0299 176.695 98.8899 176.958 98.6834 177.163C98.4769 177.369 98.2133 177.508 97.9269 177.562L42.7516 187.98C42.663 187.997 42.5729 188.004 42.4827 188.002ZM21.6584 112.167C28.456 119.48 33.9777 127.883 37.9932 137.025C41.4015 144.869 43.6414 153.17 44.6415 161.663C45.9328 172.515 44.9467 180.942 44.3168 184.724L96.386 174.894C96.8027 172.115 97.8252 163.579 96.7664 152.483C95.5816 140.022 91.4507 121.674 78.52 105.019C77.0243 103.092 74.9916 101.651 72.678 100.877C70.3643 100.103 67.8734 100.031 65.5191 100.67L21.6584 112.167Z" fill="#00236F"/>
<path d="M64.8553 99.3452L15.6717 112.256C15.6717 112.256 9.80839 114.88 10.5134 122.474C10.8357 125.953 12.4905 128.027 14.1889 129.258L63.3725 116.344C61.6765 115.115 60.0217 113.041 59.6971 109.56C58.9847 101.959 64.8553 99.3452 64.8553 99.3452Z" fill="#FFCE00"/>
<path d="M14.1888 130.709C13.8833 130.708 13.5858 130.612 13.3384 130.433C10.8525 128.637 9.37461 125.931 9.0669 122.607C8.27221 114.066 14.8139 111.052 15.0877 110.929C15.1589 110.897 15.2326 110.871 15.3081 110.851L64.4918 97.9375C64.8444 97.8444 65.2191 97.8872 65.5416 98.0575C65.8642 98.2278 66.1109 98.5131 66.2329 98.8568C66.3549 99.2005 66.3432 99.5775 66.2002 99.913C66.0572 100.248 65.7933 100.518 65.4609 100.668C65.2453 100.77 60.5498 103.021 61.1458 109.424C61.3881 111.925 62.413 113.856 64.2252 115.164C64.4488 115.325 64.6218 115.547 64.7241 115.803C64.8264 116.059 64.8537 116.339 64.8029 116.61C64.7521 116.881 64.6252 117.132 64.4372 117.334C64.2491 117.535 64.0075 117.679 63.7407 117.749L14.5716 130.663C14.4465 130.695 14.3178 130.71 14.1888 130.709ZM16.1828 113.628C15.5092 113.972 11.4025 116.334 11.9598 122.338C12.1706 124.586 13.0307 126.377 14.5207 127.668L60.4965 115.595C59.1852 113.891 58.4018 111.84 58.2433 109.696C57.9404 106.434 58.706 103.978 59.7842 102.185L16.1828 113.628Z" fill="#00236F"/>
<path d="M42.5857 156.018C46.1526 155.147 48.111 150.622 46.9601 145.911C45.8091 141.2 41.9846 138.088 38.4178 138.959C34.8509 139.831 32.8925 144.356 34.0435 149.067C35.1944 153.778 39.0189 156.89 42.5857 156.018Z" fill="white"/>
<path d="M41.3609 157.854C39.631 157.854 37.8963 157.2 36.3505 155.943C34.4534 154.399 33.0554 152.1 32.411 149.464C31.7665 146.83 31.9482 144.134 32.9198 141.9C33.9592 139.492 35.7739 137.863 38.0247 137.313C40.2755 136.763 42.6281 137.372 44.6705 139.026C46.5676 140.572 47.968 142.871 48.6101 145.505C49.2521 148.139 49.0753 150.835 48.1037 153.072C47.0619 155.477 45.2472 157.106 42.9964 157.656C42.4612 157.788 41.9121 157.854 41.3609 157.854ZM35.6939 148.662C36.1639 150.586 37.1476 152.241 38.485 153.324C39.6771 154.293 40.9951 154.666 42.1944 154.375C43.3937 154.084 44.3895 153.142 45 151.729C45.6809 150.157 45.7972 148.231 45.3271 146.307C44.8571 144.383 43.8734 142.731 42.5384 141.648C41.344 140.679 40.026 140.306 38.8266 140.596C37.6273 140.887 36.6316 141.83 36.021 143.242C35.3402 144.815 35.2239 146.741 35.6939 148.662Z" fill="#00236F"/>
<path d="M121.101 46.5975L120.745 41.7276C120.596 39.6809 119.742 37.7492 118.328 36.2617C116.914 34.7742 115.029 33.8229 112.992 33.5699L98.2322 31.7237L86.496 39.0649C85.1279 39.9202 84.0192 41.1326 83.2891 42.5713C82.5591 44.0101 82.2354 45.6208 82.3529 47.2299L82.7527 52.6134C82.8616 54.1154 83.4878 55.5331 84.5246 56.6252C85.5614 57.7172 86.9448 58.4161 88.4391 58.6027L99.7852 60.0225C103.234 60.4549 106.726 59.6847 109.673 57.8419L118.058 52.5965C119.063 51.9682 119.878 51.0774 120.414 50.0203C120.951 48.9632 121.188 47.7797 121.101 46.5975Z" fill="#1157AA"/>
<path d="M104.876 55.1623C104.927 55.8292 104.83 56.4992 104.592 57.1244C104.354 57.7495 103.981 58.3145 103.5 58.7789C103.018 59.2434 102.44 59.5959 101.807 59.8113C101.174 60.0266 100.501 60.0996 99.8362 60.0249H99.7853L88.4392 58.6051C86.9445 58.4184 85.5608 57.7192 84.524 56.6267C83.4871 55.5341 82.8611 54.1158 82.7528 52.6135L82.3603 47.2323C82.2277 45.4265 82.6504 43.6233 83.5717 42.0644L100.149 43.5181C101.238 43.6136 102.258 44.0936 103.025 44.8723C103.793 45.6509 104.258 46.6773 104.338 47.7678L104.876 55.1623Z" fill="#318AD3"/>
<path d="M108.597 9.79947C109.014 9.45756 109.504 9.21584 110.03 9.09289C110.555 8.96994 111.102 8.96903 111.627 9.09022C112.153 9.21141 112.644 9.45148 113.062 9.79199C113.481 10.1325 113.816 10.5644 114.041 11.0545C114.86 12.8304 113.985 14.9674 112.214 15.7936C110.548 16.5672 109.051 17.6623 107.81 19.0159C107.722 19.1133 107.61 19.1852 107.484 19.224C107.359 19.2627 107.226 19.267 107.099 19.2362C106.971 19.2054 106.855 19.1407 106.761 19.0491C106.667 18.9574 106.6 18.8422 106.567 18.7155C104.832 12.4961 108.597 9.79947 108.597 9.79947Z" fill="#00236F"/>
<path d="M123.524 19.1323C123.808 19.231 124.077 19.3662 124.326 19.5345C125.104 20.0543 125.644 20.8613 125.828 21.7787C126.012 22.6961 125.825 23.649 125.307 24.4286C124.224 26.0567 121.947 26.4323 120.314 25.359C118.783 24.3452 117.066 23.6445 115.262 23.2971C115.135 23.2715 115.017 23.2124 114.921 23.1258C114.824 23.0393 114.752 22.9284 114.713 22.8048C114.674 22.6812 114.668 22.5494 114.697 22.4229C114.726 22.2965 114.788 22.18 114.877 22.0857C119.253 17.3394 123.524 19.1323 123.524 19.1323Z" fill="#00236F"/>
<path d="M101.648 61.5779C100.966 61.5783 100.284 61.5362 99.606 61.452L88.2574 60.0322C86.4322 59.7982 84.7435 58.9419 83.4763 57.6076C82.2091 56.2733 81.441 54.5428 81.3014 52.7079L80.9114 47.3268C80.7735 45.4554 81.1498 43.5818 81.9996 41.9088C82.8494 40.2357 84.1403 38.8267 85.7328 37.8341L97.469 30.4929C97.753 30.316 98.0893 30.2424 98.4212 30.2846L113.181 32.1283C115.548 32.4294 117.738 33.539 119.381 35.2692C121.024 36.9995 122.018 39.2442 122.197 41.6234L122.55 46.4933C122.658 47.9384 122.368 49.3853 121.713 50.6775C121.057 51.9698 120.061 53.0582 118.831 53.8249L110.443 59.0703C107.804 60.7123 104.757 61.5811 101.648 61.5779ZM98.5714 33.2307L87.2737 40.2957C86.1295 41.0106 85.202 42.0243 84.5915 43.2275C83.9809 44.4306 83.7104 45.7777 83.8091 47.1233L84.2016 52.5068C84.2894 53.672 84.7769 54.7712 85.5817 55.6184C86.3865 56.4656 87.4592 57.0088 88.6184 57.1563L99.9646 58.576C103.082 58.9642 106.238 58.2678 108.902 56.6039L117.3 51.3584C118.081 50.8722 118.714 50.1814 119.131 49.3609C119.547 48.5405 119.731 47.6217 119.662 46.7041L119.308 41.8342C119.18 40.1252 118.466 38.5129 117.286 37.2701C116.106 36.0273 114.532 35.2303 112.832 35.0139L98.5714 33.2307Z" fill="#00236F"/>
<path d="M100.708 37.7601C106.493 37.2395 110.953 34.2683 110.67 31.1238C110.387 27.9793 105.468 25.8522 99.6834 26.3728C93.8988 26.8934 89.4389 29.8646 89.7219 33.0091C90.0049 36.1536 94.9237 38.2807 100.708 37.7601Z" fill="#318AD3"/>
<path d="M98.6077 39.0746C92.822 39.0746 88.2961 36.5646 87.9666 32.957C87.6008 28.9666 92.5312 25.3638 99.1916 24.7508C102.215 24.4746 105.14 24.8647 107.429 25.8508C110.007 26.9629 111.531 28.7146 111.727 30.7861C111.924 32.8576 110.736 34.8541 108.401 36.4144C106.329 37.7978 103.526 38.7112 100.502 38.9874C99.8555 39.0456 99.2231 39.0746 98.6077 39.0746ZM90.8546 32.6929C91.0364 34.6893 94.9299 36.5694 100.221 36.0849C102.734 35.8571 105.12 35.0915 106.763 33.9891C108.166 33.0684 108.912 31.9951 108.82 31.0502C108.728 30.1053 107.805 29.1846 106.271 28.5232C104.459 27.7382 101.968 27.4159 99.4581 27.6582C94.1642 28.1428 90.6778 30.7062 90.8619 32.7026L90.8546 32.6929Z" fill="#00236F"/>
<path d="M98.5544 39.0771C96.2454 39.0771 94.0673 38.6918 92.2817 37.9504C89.6941 36.8771 88.1628 35.1666 87.9836 33.1363C87.8043 31.1059 88.989 29.1483 91.3392 27.6243C93.4083 26.282 96.2091 25.3904 99.2255 25.1142C102.242 24.838 105.159 25.2063 107.437 26.1512C110.024 27.2245 111.555 28.9351 111.737 30.9654C111.919 32.9957 110.732 34.9534 108.381 36.4774C106.312 37.8196 103.512 38.7136 100.495 38.9874C99.8409 39.0488 99.194 39.0787 98.5544 39.0771ZM101.14 27.932C100.597 27.932 100.044 27.9587 99.4896 28.0095C96.9723 28.2518 94.5785 28.9787 92.9213 30.0641C91.5403 30.9581 90.7965 31.983 90.8764 32.8722C90.9588 33.7613 91.8771 34.6336 93.3962 35.2635C95.2206 36.0219 97.7112 36.3223 100.229 36.0921C102.746 35.8619 105.142 35.123 106.799 34.04C108.178 33.1435 108.924 32.1187 108.842 31.2295C108.759 30.3403 107.844 29.4681 106.322 28.8381C104.9 28.247 103.071 27.932 101.14 27.932Z" fill="#00236F"/>
<path d="M99.9811 33.3581C102.138 33.1607 103.811 32.1612 103.716 31.1259C103.621 30.0905 101.795 29.4112 99.6379 29.6087C97.4806 29.8062 95.8085 30.8056 95.9033 31.841C95.9981 32.8764 97.8238 33.5556 99.9811 33.3581Z" fill="#00236F"/>
<path d="M100.939 45.6236C100.338 45.6227 99.7373 45.5854 99.1408 45.5121L83.4772 43.552C83.2877 43.5283 83.1047 43.4676 82.9388 43.3731C82.7728 43.2787 82.627 43.1526 82.5098 43.0018C82.3926 42.8511 82.3062 42.6787 82.2556 42.4946C82.205 42.3105 82.1912 42.1182 82.2149 41.9287C82.2386 41.7393 82.2994 41.5563 82.3938 41.3903C82.4882 41.2244 82.6143 41.0786 82.7651 40.9614C82.9158 40.8442 83.0882 40.7578 83.2723 40.7072C83.4564 40.6566 83.6487 40.6427 83.8382 40.6664L99.5018 42.6265C102.165 42.9538 104.86 42.355 107.134 40.9305L117.324 34.7547C117.488 34.6518 117.67 34.5824 117.86 34.5506C118.05 34.5188 118.245 34.5253 118.433 34.5696C118.621 34.6139 118.798 34.6952 118.954 34.8087C119.111 34.9223 119.242 35.0658 119.343 35.2308C119.443 35.3959 119.509 35.5793 119.537 35.7702C119.566 35.9611 119.556 36.1558 119.508 36.3429C119.461 36.53 119.376 36.7057 119.26 36.8598C119.144 37.014 118.998 37.1434 118.831 37.2406L108.655 43.4067C106.341 44.8531 103.668 45.6212 100.939 45.6236Z" fill="#00236F"/>
<path d="M92.7349 55.5669C92.6937 55.5693 92.6525 55.5693 92.6113 55.5669L90.4307 55.2883C89.6927 55.1936 88.9994 54.8819 88.4387 54.3928C87.878 53.9037 87.4751 53.2591 87.2811 52.5408C87.2136 52.2927 87.2474 52.0281 87.3751 51.805C87.5028 51.5819 87.7138 51.4186 87.9619 51.3512C88.2099 51.2837 88.4746 51.3175 88.6977 51.4452C88.9208 51.5729 89.084 51.7839 89.1515 52.032C89.2462 52.3811 89.4426 52.6942 89.7157 52.9315C89.9887 53.1688 90.3262 53.3195 90.6851 53.3645L92.8657 53.6456C93.1227 53.662 93.3627 53.7798 93.5329 53.9731C93.703 54.1665 93.7894 54.4195 93.773 54.6765C93.7567 54.9335 93.6388 55.1735 93.4455 55.3437C93.2522 55.5139 92.9992 55.6002 92.7421 55.5839L92.7349 55.5669Z" fill="#8ADDF9"/>
<path d="M87.8503 50.1906C87.6099 50.1919 87.3777 50.1039 87.1986 49.9436C87.0195 49.7833 86.9064 49.5622 86.8811 49.3232L86.8424 48.9622C86.8157 48.7052 86.8922 48.4481 87.0551 48.2475C87.218 48.0469 87.4539 47.9192 87.7109 47.8925C87.968 47.8659 88.2251 47.9424 88.4257 48.1053C88.6263 48.2682 88.754 48.5041 88.7806 48.7611L88.817 49.1197C88.8304 49.2463 88.8187 49.3744 88.7827 49.4965C88.7466 49.6187 88.6868 49.7325 88.6067 49.8315C88.5266 49.9305 88.4277 50.0128 88.3158 50.0735C88.2039 50.1343 88.0811 50.1725 87.9544 50.1857L87.8503 50.1906Z" fill="#8ADDF9"/>
<path d="M135.859 121.136C131.781 119.772 127.272 121.718 125.7 125.72C125.297 126.742 125.1 127.834 125.121 128.933C125.121 128.933 124.767 135.189 134.42 140.436L150.769 123.346C145.71 123.447 140.671 122.7 135.859 121.136Z" fill="white"/>
<path d="M134.42 141.888C134.177 141.888 133.939 141.828 133.727 141.711C123.822 136.327 123.648 129.728 123.667 128.921C123.648 127.644 123.879 126.377 124.348 125.19C126.184 120.513 131.442 118.127 136.319 119.755C140.961 121.254 145.819 121.976 150.696 121.892C151.082 121.873 151.459 122.007 151.746 122.266C152.032 122.525 152.203 122.888 152.223 123.273C152.242 123.659 152.107 124.036 151.848 124.322C151.589 124.609 151.227 124.78 150.842 124.799C145.602 124.916 140.381 124.146 135.398 122.52C131.99 121.381 128.324 123.024 127.054 126.256C126.719 127.099 126.555 128.001 126.57 128.909C126.57 128.945 126.57 128.981 126.57 129.015C126.57 129.219 126.507 134.484 135.113 139.162C135.396 139.317 135.621 139.561 135.75 139.857C135.879 140.154 135.906 140.484 135.826 140.798C135.747 141.111 135.565 141.389 135.31 141.587C135.054 141.785 134.74 141.893 134.417 141.893L134.42 141.888Z" fill="#00236F"/>
</svg>
